#!OML:ASF E:\acrobat2\Project_11_07_03\Capture day 1\Session 1\Acrobat.ASF
:FULLY-SPECIFIED
:DEGREES
432
root 10.9176 1.83851 3.21343 100.28 -7.0638 178.91
lowerback 9.04687 1.44217 -9.57698
upperback 12.1284 0.00103563 -3.01821
thorax 7.8212 -1.48054 1.99244
lowerneck -1.28641 -0.472607 -2.90135
upperneck 13.153 -0.345549 3.64636
head 4.61195 0.126017 1.76513
rclavicle 1.37161e-014 7.36497e-014
rhumerus 19.5749 11.4879 -85.45
rradius 39.9401
rwrist -14.8114
rhand -25.4694 -58.8449
rfingers 7.12502
rthumb 1.05819 271.178
lclavicle 1.37161e-014 7.36497e-014
lhumerus 30.5089 -27.2911 74.3697
lradius 31.8199
lwrist 23.583
lhand -42.1403 -6.5183
lfingers 7.12502
lthumb -15.0304 22.9161
rfemur -76.1481 -50.2871 -18.9976
rtibia 59.8842
rfoot 20.8842 -24.6313
rtoes 28.2
lfemur -75.2805 48.3012 -6.90235
ltibia 61.728
lfoot 6.37829 19.4218
ltoes 40.3508
433
root 10.9195 1.8547 3.10956 100.69 -5.43742 179.069
lowerback 11.3949 1.66654 -7.65943
upperback 12.5745 -0.0758192 -2.64181
thorax 6.96427 -1.47031 1.35031
lowerneck -1.44186 -0.59772 -2.67093
upperneck 14.2239 -0.440209 3.195
head 4.50438 0.110512 1.42862
rclavicle 1.54058e-014 1.56046e-014
rhumerus 18.2057 9.95425 -87.6201
rradius 36.1555
rwrist -13.8869
rhand -25.5668 -60.2783
rfingers 7.12502
rthumb 0.964143 450.256
lclavicle 1.54058e-014 1.56046e-014
lhumerus 28.1121 -26.6343 77.5565
lradius 29.195
lwrist 24.1828
lhand -41.6021 -5.22803
lfingers 7.12502
lthumb -14.5118 24.2444
rfemur -72.8491 -48.7779 -19.3597
rtibia 60.856
rfoot 23.0582 -28.0314
rtoes 28.9764
lfemur -70.6591 47.9345 -2.25284
ltibia 61.6023
lfoot 6.91054 21.07
ltoes 41.9308
434
root 10.9219 1.86212 2.98394 100.924 -4.21543 179.332
lowerback 14.0785 1.86765 -6.06485
upperback 13.069 -0.20424 -2.36039
thorax 6.03411 -1.5471 0.785527
lowerneck -1.65561 -0.716682 -2.43655
upperneck 14.8084 -0.507908 2.65822
head 4.72098 0.0815828 1.2264
rclavicle 2.5842e-014 6.7388e-014
rhumerus 16.9973 8.19836 -89.6506
rradius 32.4382
rwrist -12.2174
rhand -25.5287 -61.8012
rfingers 7.12502
rthumb 1.00095 451.779
lclavicle 2.5842e-014 6.7388e-014
lhumerus 25.9255 -26.0619 80.2198
lradius 26.5742
lwrist 24.2387
lhand -40.9151 -4.11278
lfingers 7.12502
lthumb -13.8498 25.4061
rfemur -69.476 -47.2811 -20.24
rtibia 61.631
rfoot 26.1522 -30.883
rtoes 28.8234
lfemur -66.1079 46.9822 2.0803
ltibia 61.3683
lfoot 7.7202 22.4072
ltoes 43.1816
435
root 10.9265 1.86872 2.84223 101.355 -3.33557 179.627
lowerback 16.56 2.02078 -4.78959
upperback 13.566 -0.352169 -2.16295
thorax 5.26768 -1.67653 0.309561
lowerneck -1.80589 -0.79864 -2.22475
upperneck 15.1113 -0.554667 2.24863
head 4.8398 0.0572229 1.06489
rclavicle -1.98785e-016 9.34288e-015
rhumerus 15.9691 6.3067 -91.5039
rradius 28.8385
rwrist -10.2052
rhand -25.3237 -63.2173
rfingers 7.12502
rthumb 1.19898 453.194
lclavicle -1.98785e-016 9.34288e-015
lhumerus 23.9437 -25.5754 82.4175
lradius 23.9814
lwrist 23.8074
lhand -40.2102 -3.29868
lfingers 7.12502
lthumb -13.1704 26.2653
rfemur -66.507 -45.9576 -21.2621
rtibia 62.222
rfoot 29.9538 -32.4331
rtoes 27.6977
lfemur -62.2394 45.6981 5.68577
ltibia 61.0887
lfoot 8.55944 23.3568
ltoes 44.2958
436
root 10.934 1.88445 2.69396 102.349 -2.66893 179.883
lowerback 18.4236 2.11024 -3.82594
upperback 13.9619 -0.48979 -2.00394
thorax 4.74718 -1.80707 -0.0346063
lowerneck -1.88059 -0.829966 -2.0447
upperneck 15.2012 -0.556065 1.9362
head 4.87925 0.0508496 0.938843
rclavicle 2.38542e-015 7.55382e-015
rhumerus 15.0156 4.42055 -93.1414
rradius 25.4252
rwrist -8.20266
rhand -25.1801 -64.6773
rfingers 7.12502
rthumb 1.3376 454.653
lclavicle 2.38542e-015 7.55382e-015
lhumerus 22.0142 -25.0559 84.3276
lradius 21.4952
lwrist 23.0124
lhand -39.5325 -2.58489
lfingers 7.12502
lthumb -12.5171 27.0202
rfemur -64.3366 -44.934 -22.0353
rtibia 62.6246
rfoot 33.8138 -32.5399
rtoes 26.1931
lfemur -59.4313 44.4368 8.4084
ltibia 60.7741
lfoot 9.13693 24.0499
ltoes 45.5745
